<svg viewBox="0 0 300.0001 253.8359" width="5000px" height="4230.597158631238px" xmlns="http://www.w3.org/2000/svg" xmlns:xlink="http://www.w3.org/1999/xlink" preserveAspectRatio="none"><defs></defs><style>.aLgOaV3zRcolors-0 {fill:#FFB200;fill-opacity:1;}.atTpncToll0filter-floo {flood-color:#FD8948;flood-opacity:0.5;}.companyName {fill:#EFEDE8;fill-opacity:1;}.text {fill:#EFEDE8;fill-opacity:1;}</style><defs>
      <filter x="-1000" y="-1000" width="2000" height="2000" id="tTpncToll" filterUnits="userSpaceOnUse" primitiveUnits="userSpaceOnUse" color-interpolation-filters="sRGB">
        <feMerge><feMergeNode in="SourceGraphic"></feMergeNode></feMerge>
      </filter></defs><g opacity="1" transform="rotate(0 84.20949999999999 227.83589999999998)">
<svg width="131.5811" height="26" x="84.20949999999999" y="227.83589999999998" version="1.1" preserveAspectRatio="none" viewBox="1.04 -29.2 149.8 29.6">
  <g transform="matrix(1 0 0 1 0 0)" class="text"><path d="M21.96 0L19.16-7.32L7.20-7.32L4.40 0L1.04 0L11.32-26.40L15.12-26.40L25.36 0L21.96 0ZM8.36-10.32L18-10.32L14.44-19.68L13.20-23.36L13.12-23.36L11.96-19.80L8.36-10.32Z M48.52-2.32Q49.32-2.32 50.12-2.52L50.12-2.52L49.92 0Q48.80 0.40 47.52 0.40L47.52 0.40Q45.96 0.40 45.06-0.28Q44.16-0.96 43.92-2.56L43.92-2.56Q43-1.16 41.22-0.38Q39.44 0.40 37.48 0.40L37.48 0.40Q34.52 0.40 32.60-0.98Q30.68-2.36 30.68-4.96L30.68-4.96Q30.68-7.24 32.68-8.90Q34.68-10.56 38.48-11.20L38.48-11.20L43.80-12.08L43.80-13.20Q43.80-15.20 42.56-16.40Q41.32-17.60 39.12-17.60L39.12-17.60Q37.12-17.60 35.66-16.64Q34.20-15.68 33.40-13.80L33.40-13.80L31.04-15.52Q31.84-17.76 34.02-19.08Q36.20-20.40 39.12-20.40L39.12-20.40Q42.68-20.40 44.84-18.68Q47-16.96 47-13.60L47-13.60L47-3.76Q47-3.04 47.36-2.68Q47.72-2.32 48.52-2.32L48.52-2.32ZM37.64-2.40Q40.16-2.40 41.98-3.60Q43.80-4.80 43.80-6.72L43.80-6.72L43.80-9.48L39.32-8.64Q36.64-8.16 35.32-7.26Q34-6.36 34-4.96L34-4.96Q34-3.72 34.96-3.06Q35.92-2.40 37.64-2.40L37.64-2.40Z M65.20-20.40Q68.20-20.40 70.26-19.02Q72.32-17.64 73.48-15.08L73.48-15.08L70.44-13.64Q69.16-17.60 65.12-17.60L65.12-17.60Q62.12-17.60 60.42-15.58Q58.72-13.56 58.72-10L58.72-10Q58.72-6.44 60.42-4.42Q62.12-2.40 65.12-2.40L65.12-2.40Q67.44-2.40 68.86-3.46Q70.28-4.52 70.72-6.52L70.72-6.52L73.68-5.48Q72.64-2.68 70.48-1.14Q68.32 0.40 65.20 0.40L65.20 0.40Q60.68 0.40 58.10-2.36Q55.52-5.12 55.52-10L55.52-10Q55.52-14.88 58.10-17.64Q60.68-20.40 65.20-20.40L65.20-20.40Z M91.04-20.40Q94.44-20.40 96.64-18.44Q98.84-16.48 98.84-12.80L98.84-12.80L98.84 0L95.64 0L95.64-11.68Q95.64-14.80 94.30-16.20Q92.96-17.60 90.72-17.60L90.72-17.60Q89.16-17.60 87.74-16.88Q86.32-16.16 85.42-14.58Q84.52-13 84.52-10.60L84.52-10.60L84.52 0L81.32 0L81.32-29.20L84.52-29.20L84.52-17Q85.52-18.72 87.22-19.56Q88.92-20.40 91.04-20.40L91.04-20.40Z M125.24-11.04Q125.24-9.92 125.08-8.80L125.08-8.80L110.00-8.80Q110.28-5.76 112.02-4.08Q113.76-2.40 116.52-2.40L116.52-2.40Q118.72-2.40 120.18-3.16Q121.64-3.92 122.16-5.36L122.16-5.36L124.84-3.96Q123.64-1.84 121.64-0.72Q119.64 0.40 116.52 0.40L116.52 0.40Q112.00 0.40 109.42-2.36Q106.84-5.12 106.84-10L106.84-10Q106.84-14.88 109.30-17.64Q111.76-20.40 116.28-20.40L116.28-20.40Q119.08-20.40 121.12-19.16Q123.16-17.92 124.20-15.80Q125.24-13.68 125.24-11.04L125.24-11.04ZM116.28-17.60Q113.64-17.60 112.02-16.04Q110.40-14.48 110.04-11.64L110.04-11.64L122.16-11.64Q121.84-14.44 120.32-16.02Q118.80-17.60 116.28-17.60L116.28-17.60Z M143.04-20.40Q146.44-20.40 148.64-18.44Q150.84-16.48 150.84-12.80L150.84-12.80L150.84 0L147.64 0L147.64-11.68Q147.64-14.80 146.30-16.20Q144.96-17.60 142.72-17.60L142.72-17.60Q141.12-17.60 139.72-16.90Q138.32-16.20 137.42-14.62Q136.52-13.04 136.52-10.64L136.52-10.64L136.52 0L133.32 0L133.32-20L136.12-20L136.32-16.88Q137.32-18.68 139.08-19.54Q140.84-20.40 143.04-20.40L143.04-20.40Z"></path></g>
</svg>
</g><g opacity="1" transform="rotate(0 0 145.05150000000003)">
<svg width="300.0001" height="68.1303" x="0" y="145.05150000000003" version="1.1" preserveAspectRatio="none" viewBox="3.44 -28.76 128.4 29.160000000000004">
  <g transform="matrix(1 0 0 1 0 0)" class="companyName"><path d="M8.96-4.44L22.88-4.44L22.88 0L3.44 0L3.44-26.40L8.96-26.40L8.96-4.44Z M45.20-3.32Q46.04-3.32 46.56-3.48L46.56-3.48L46.16-0.16Q45.04 0.40 43.56 0.40L43.56 0.40Q39.72 0.40 38.96-2.60L38.96-2.60Q38.08-1.12 36.24-0.36Q34.40 0.40 31.88 0.40L31.88 0.40Q28.96 0.40 27.32-0.92Q25.68-2.24 25.68-4.72L25.68-4.72Q25.68-9.60 33.48-11.04L33.48-11.04L38.28-11.96L38.28-12.92Q38.28-14.52 37.38-15.46Q36.48-16.40 34.88-16.40L34.88-16.40Q33.04-16.40 31.88-15.60Q30.72-14.80 30.28-13L30.28-13L25.92-14.84Q26.56-17.44 28.80-18.92Q31.04-20.40 34.64-20.40L34.64-20.40Q38.92-20.40 41.32-18.54Q43.72-16.68 43.72-13.04L43.72-13.04L43.72-4.84Q43.72-4.04 44.08-3.68Q44.44-3.32 45.20-3.32L45.20-3.32ZM33.60-3.32Q35.36-3.32 36.82-4.18Q38.28-5.04 38.28-6.52L38.28-6.52L38.28-8.60L34-7.64Q32.64-7.32 31.98-6.78Q31.32-6.24 31.32-5.28L31.32-5.28Q31.32-4.32 31.92-3.82Q32.52-3.32 33.60-3.32L33.60-3.32Z M61.64-20.40Q65.64-20.40 67.92-17.64Q70.20-14.88 70.20-9.96L70.20-9.96Q70.20-5.08 67.92-2.34Q65.64 0.40 61.64 0.40L61.64 0.40Q59.28 0.40 57.54-0.78Q55.80-1.96 54.92-3.96L54.92-3.96L54.72 0L49.88 0L49.88-28.76L55.36-28.76L55.36-16.72Q56.28-18.44 57.88-19.42Q59.48-20.40 61.64-20.40L61.64-20.40ZM60-3.80Q62.24-3.80 63.48-5.40Q64.72-7 64.72-10L64.72-10Q64.72-13 63.48-14.60Q62.24-16.20 60-16.20L60-16.20Q58-16.20 56.76-14.80Q55.52-13.40 55.36-10.88L55.36-10.88L55.36-9.12Q55.52-6.56 56.76-5.18Q58-3.80 60-3.80L60-3.80Z M92.28 0L90.08-6.44L79.92-6.44L77.76 0L72.12 0L81.76-26.40L88.36-26.40L98 0L92.28 0ZM81.28-10.52L88.72-10.52L86.24-17.96L85.04-21.96L84.96-21.96L83.84-18.04L81.28-10.52Z M104.12-22.88Q100.72-22.88 100.72-25.80L100.72-25.80Q100.72-28.76 104.12-28.76L104.12-28.76Q107.52-28.76 107.52-25.80L107.52-25.80Q107.52-22.88 104.12-22.88L104.12-22.88ZM106.84-20L106.84 0L101.36 0L101.36-20L106.84-20Z M131.84 0L125.56 0L121.04-7.28L116.44 0L110.32 0L117.68-10.12L110.68-20L117-20L121.28-13L125.56-20L131.72-20L124.64-10.12L131.84 0Z"></path></g>
</svg>
</g><g filter="url(#tTpncToll)"><g opacity="1" transform="rotate(0 82.5 0)">
<svg width="135.0001" height="119.3414" x="82.5" y="0" version="1.1" preserveAspectRatio="none" viewBox="0.078125 1.4609375 23.84375 21.078125">
  <g transform="matrix(1 0 0 -1 0 24)" class="aLgOaV3zRcolors-0"><g><path d="M0.48,14.16h2.428c0.172,0.614,0.417,1.206,0.732,1.764l-1.717,1.718c-0.075,0.075-0.117,0.177-0.117,0.283   s0.042,0.208,0.117,0.283l2.489,2.489c0.149,0.148,0.416,0.148,0.565,0l1.717-1.718c0.558,0.315,1.149,0.56,1.764,0.732v2.427   c0,0.221,0.179,0.4,0.4,0.4h3.52c0.221,0,0.4-0.18,0.4-0.4v-1.615c0-0.221-0.179-0.4-0.4-0.4s-0.4,0.18-0.4,0.4v1.215h-2.72V19.4   c0-0.186-0.127-0.347-0.308-0.389c-0.745-0.177-1.455-0.471-2.11-0.875c-0.157-0.097-0.361-0.073-0.493,0.058l-1.653,1.653   l-1.923-1.922l1.653-1.654c0.131-0.131,0.155-0.335,0.058-0.493c-0.404-0.656-0.699-1.366-0.875-2.11   c-0.042-0.18-0.204-0.308-0.389-0.308H0.88v-2.72h2.337c0.186,0,0.347-0.127,0.389-0.308c0.177-0.745,0.471-1.455,0.875-2.11   C4.579,8.064,4.555,7.86,4.424,7.729L2.771,6.076l1.923-1.923l1.653,1.653C6.477,5.937,6.681,5.96,6.84,5.864   C7.494,5.46,8.204,5.166,8.95,4.989C9.13,4.946,9.258,4.785,9.258,4.6V2.262h2.72v0.913c0,0.221,0.179,0.4,0.4,0.4   s0.4-0.179,0.4-0.4V1.862c0-0.221-0.179-0.4-0.4-0.4h-3.52c-0.221,0-0.4,0.179-0.4,0.4V4.29C7.843,4.462,7.251,4.707,6.693,5.021   L4.976,3.305c-0.156-0.156-0.409-0.156-0.565,0L1.922,5.793C1.847,5.868,1.805,5.97,1.805,6.076s0.042,0.208,0.117,0.283   l1.717,1.717c-0.315,0.559-0.56,1.15-0.732,1.765H0.48c-0.221,0-0.4,0.179-0.4,0.4v3.52C0.08,13.98,0.259,14.16,0.48,14.16z"></path><path d="M13.446,7.297h0.849h0.987h1.513c0.104,0,0.203-0.04,0.278-0.112l1.883-1.818c0.253,0.129,0.535,0.208,0.838,0.208   c1.028,0,1.864-0.836,1.864-1.864s-0.836-1.864-1.864-1.864s-1.864,0.836-1.864,1.864c0,0.433,0.155,0.828,0.404,1.144l-1.7,1.641   h-1.351h-0.987h-0.849c-0.221,0-0.4,0.179-0.4,0.4S13.225,7.297,13.446,7.297z M19.793,2.647c0.586,0,1.064,0.478,1.064,1.064   c0,0.586-0.478,1.064-1.064,1.064c-0.587,0-1.064-0.478-1.064-1.064C18.729,3.125,19.206,2.647,19.793,2.647z"></path><path d="M22.056,10.844c1.028,0,1.864-0.836,1.864-1.864s-0.836-1.864-1.864-1.864c-0.89,0-1.635,0.628-1.819,1.464h-9.549   c-1.727,0-3.131,1.528-3.131,3.407s1.404,3.407,3.131,3.407h9.549c0.184,0.836,0.928,1.464,1.819,1.464   c1.028,0,1.864-0.836,1.864-1.864s-0.836-1.864-1.864-1.864c-0.89,0-1.635,0.628-1.819,1.464h-9.549   c-1.285,0-2.331-1.17-2.331-2.607S9.404,9.38,10.689,9.38h9.549C20.422,10.216,21.166,10.844,22.056,10.844z M22.056,7.916   c0.586,0,1.064,0.478,1.064,1.064c0,0.586-0.478,1.064-1.064,1.064c-0.587,0-1.064-0.478-1.064-1.064   C20.992,8.393,21.469,7.916,22.056,7.916z M22.056,13.931c0.586,0,1.064,0.478,1.064,1.064c0,0.587-0.478,1.064-1.064,1.064   c-0.587,0-1.064-0.478-1.064-1.064C20.992,14.408,21.469,13.931,22.056,13.931z"></path><path d="M14.938,11.547l-4.761,0.035c-0.221,0.001-0.398,0.182-0.397,0.403c0.001,0.22,0.18,0.397,0.4,0.397   c0.001,0,0.002,0,0.003,0l4.736-0.034c0.17,0.853,0.924,1.498,1.827,1.498c1.028,0,1.864-0.836,1.864-1.864   s-0.836-1.864-1.864-1.864C15.868,10.117,15.135,10.729,14.938,11.547z M17.81,11.981c0,0.586-0.478,1.064-1.064,1.064   c-0.586,0-1.064-0.478-1.064-1.064c0-0.587,0.478-1.064,1.064-1.064C17.332,10.917,17.81,11.395,17.81,11.981z"></path><path d="M19.793,18.35c-0.298,0-0.576,0.077-0.826,0.201l-1.759-1.871c-0.076-0.081-0.181-0.126-0.292-0.126h-1.188h-1.311h-0.952   c-0.221,0-0.4,0.179-0.4,0.4s0.179,0.4,0.4,0.4h0.952h1.311h1.016l1.599,1.702c-0.255,0.319-0.415,0.718-0.415,1.158   c0,1.028,0.836,1.865,1.864,1.865s1.864-0.837,1.864-1.865C21.657,19.186,20.821,18.35,19.793,18.35z M19.793,21.278   c-0.587,0-1.064-0.478-1.064-1.064c0-0.586,0.478-1.064,1.064-1.064c0.586,0,1.064,0.478,1.064,1.064   C20.857,20.8,20.38,21.278,19.793,21.278z"></path><path d="M5.776,11.925c0,2.993,2.435,5.428,5.428,5.428c0.221,0,0.4-0.179,0.4-0.4s-0.179-0.4-0.4-0.4   c-2.552,0-4.628-2.076-4.628-4.628c0-2.552,2.076-4.628,4.628-4.628c0.221,0,0.4-0.179,0.4-0.4s-0.179-0.4-0.4-0.4   C8.211,6.498,5.776,8.932,5.776,11.925z"></path></g></g>
</svg>
</g></g></svg>