<?xml version="1.0" encoding="utf-8"?>
<!-- Generator: Adobe Illustrator 19.0.0, SVG Export Plug-In . SVG Version: 6.00 Build 0)  -->
<svg version="1.1" id="Layer_1" xmlns="http://www.w3.org/2000/svg" xmlns:xlink="http://www.w3.org/1999/xlink" x="0px" y="0px"
	 viewBox="2400 -2056.5 5000 4230.6" style="enable-background:new 2400 -2056.5 5000 4230.6;" xml:space="preserve">
<style type="text/css">
	.st0{fill:#292D2D;}
	.st1{fill:#FFB200;}
</style>
<g transform="matrix(1 0 0 1 0 0)">
	<path class="st0" d="M4109.8,2168.2l-41-107.2h-175.1l-41,107.2h-49.2l150.5-386.5h55.6l149.9,386.5H4109.8z M3910.7,2017.1h141.1
		l-52.1-137l-18.2-53.9h-1.2l-17,52.1L3910.7,2017.1z M4498.6,2134.2c7.8,0,15.6-1,23.4-2.9l0,0l-2.9,36.9
		c-10.9,3.9-22.6,5.9-35.1,5.9l0,0c-15.2,0-27.2-3.3-36-10c-8.8-6.6-14.3-17.8-16.7-33.4l0,0c-9,13.7-22.2,24.3-39.5,31.9
		c-17.4,7.6-35.6,11.4-54.8,11.4l0,0c-28.9,0-52.7-6.7-71.4-20.2c-18.7-13.5-28.1-32.9-28.1-58.3l0,0c0-22.3,9.8-41.5,29.3-57.7
		s47.8-27.4,84.9-33.7l0,0l77.9-12.9V1975c0-19.5-6.1-35.1-18.2-46.8s-28.9-17.6-50.4-17.6l0,0c-19.5,0-36.4,4.7-50.7,14.1
		c-14.2,9.4-25.3,23.2-33.1,41.6l0,0l-34.5-25.2c7.8-21.9,22.3-39.2,43.6-52.1c21.3-12.9,46.2-19.3,74.7-19.3l0,0
		c34.7,0,62.7,8.4,83.7,25.2c21.1,16.8,31.6,41.6,31.6,74.4l0,0v144.1c0,7,1.8,12.3,5.3,15.8
		C4485.1,2132.5,4490.8,2134.2,4498.6,2134.2L4498.6,2134.2z M4339.3,2133.1c24.6,0,45.8-5.9,63.5-17.6
		c17.8-11.7,26.6-26.9,26.6-45.7l0,0v-40.4l-65.6,12.3c-26.2,4.7-45.7,11.4-58.6,20.2c-12.9,8.8-19.3,20-19.3,33.7l0,0
		c0,12.1,4.7,21.4,14.1,27.8C4309.4,2129.8,4322.5,2133.1,4339.3,2133.1L4339.3,2133.1z M4742.8,1869.6c29.3,0,54,6.7,74.1,20.2
		c20.1,13.5,35.8,32.7,47.1,57.7l0,0l-44.5,21.1c-12.5-38.6-38.5-58-77.9-58l0,0c-29.3,0-52.2,9.9-68.8,29.6
		c-16.6,19.7-24.9,46.9-24.9,81.7l0,0c0,34.7,8.3,62,24.9,81.7c16.6,19.7,39.5,29.6,68.8,29.6l0,0c22.6,0,40.9-5.2,54.8-15.5
		c13.9-10.3,22.9-25.3,27.2-44.8l0,0l43.3,15.2c-10.1,27.3-25.8,48.5-46.8,63.5s-46.8,22.5-77.3,22.5l0,0
		c-44.1,0-78.8-13.5-103.9-40.4c-25.2-26.9-37.8-64.2-37.8-111.8l0,0c0-47.6,12.6-84.9,37.8-111.8
		C4664,1883,4698.7,1869.6,4742.8,1869.6L4742.8,1869.6z M5121.1,1869.6c33.2,0,60.5,9.6,82,28.7c21.5,19.1,32.2,46.7,32.2,82.6l0,0
		v187.4h-46.8v-171c0-30.5-6.5-52.5-19.6-66.2c-13.1-13.7-30.5-20.5-52.4-20.5l0,0c-15.2,0-29.8,3.5-43.6,10.5
		c-13.9,7-25.2,18.3-34,33.7c-8.8,15.4-13.2,34.8-13.2,58.3l0,0v155.2h-46.8v-427.5h46.8v178.6c9.8-16.8,22.9-29.3,39.5-37.5
		C5081.7,1873.7,5100.4,1869.6,5121.1,1869.6L5121.1,1869.6z M5621.7,2006.6c0,10.9-0.8,21.9-2.3,32.8l0,0h-220.8
		c2.7,29.7,12.6,52.7,29.6,69.1c17,16.4,38.9,24.6,65.9,24.6l0,0c21.5,0,39.3-3.7,53.6-11.1c14.2-7.4,23.9-18.2,29-32.2l0,0
		l39.2,20.5c-11.7,20.7-27.3,36.5-46.8,47.4s-44.5,16.4-75,16.4l0,0c-44.1,0-78.8-13.5-103.9-40.4c-25.2-26.9-37.8-64.2-37.8-111.8
		l0,0c0-47.6,12-84.9,36-111.8c24-26.9,58.1-40.4,102.2-40.4l0,0c27.3,0,50.9,6.1,70.9,18.2c19.9,12.1,34.9,28.5,45.1,49.2
		S5621.7,1980.8,5621.7,2006.6L5621.7,2006.6z M5490.6,1910.5c-25.8,0-46.6,7.6-62.4,22.8c-15.8,15.2-25.5,36.7-29,64.4l0,0h177.4
		c-3.1-27.3-12.1-48.7-26.9-64.1C5534.9,1918.3,5515.2,1910.5,5490.6,1910.5L5490.6,1910.5z M5882.3,1869.6c33.2,0,60.5,9.6,82,28.7
		c21.5,19.1,32.2,46.7,32.2,82.6l0,0v187.4h-46.8v-171c0-30.5-6.5-52.5-19.6-66.2c-13.1-13.7-30.5-20.5-52.4-20.5l0,0
		c-15.6,0-30.3,3.4-43.9,10.2s-24.9,18-33.7,33.4c-8.8,15.4-13.2,34.8-13.2,58.3l0,0v155.8H5740v-292.8h41l2.9,45.7
		c9.8-17.6,23.2-30.5,40.4-38.9C5841.5,1873.8,5860.8,1869.6,5882.3,1869.6L5882.3,1869.6z"/>
</g>
<g transform="rotate(0 0 145.05150000000003)">
	<g transform="matrix(1 0 0 1 0 0)">
		<path class="st0" d="M2615,1308H3157v172.9h-757v-1028h215V1308z M4026.2,1351.6c21.8,0,39.5-2.1,53-6.2l0,0l-15.6,129.3
			c-29.1,14.5-62.8,21.8-101.2,21.8l0,0c-99.7,0-159.4-38.9-179.1-116.8l0,0c-22.8,38.4-58.2,67.5-105.9,87.2
			s-104.4,29.6-169.8,29.6l0,0c-75.8,0-135-17.1-177.6-51.4c-42.6-34.3-63.9-83.6-63.9-148l0,0c0-126.7,101.2-208.7,303.7-246.1l0,0
			l186.9-35.8v-37.4c0-41.5-11.7-74.5-35-98.9s-55.8-36.6-97.4-36.6l0,0c-47.8,0-86.7,10.4-116.8,31.2
			c-30.1,20.8-50.9,54.5-62.3,101.2l0,0L3275.4,903c16.6-67.5,54-120.5,112.1-158.9c58.2-38.4,134-57.6,227.4-57.6l0,0
			c111.1,0,197.8,24.1,260.1,72.4s93.5,119.7,93.5,214.2l0,0v319.3c0,20.8,4.7,35.8,14,45.2
			C3991.9,1347,4006.4,1351.6,4026.2,1351.6L4026.2,1351.6z M3574.5,1351.6c45.7,0,87.5-11.2,125.4-33.5s56.9-52.7,56.9-91.1l0,0
			v-81l-166.7,37.4c-35.3,8.3-61.5,19.5-78.7,33.5c-17.1,14-25.7,33.5-25.7,58.4l0,0c0,24.9,7.8,43.9,23.4,56.9
			C3524.6,1345.1,3546.4,1351.6,3574.5,1351.6L3574.5,1351.6z M4666.4,686.5c103.8,0,185.4,35.8,244.5,107.5
			c59.2,71.7,88.8,171.3,88.8,299.1l0,0c0,126.7-29.6,225.6-88.8,296.7c-59.2,71.1-140.7,106.7-244.5,106.7l0,0
			c-61.3,0-114.5-15.3-159.7-45.9c-45.2-30.6-79.2-71.9-102-123.8l0,0l-7.8,154.2h-188.5V361h213.4v468.8
			c23.9-44.7,56.6-79.7,98.1-105.1C4561.5,699.3,4610.3,686.5,4666.4,686.5L4666.4,686.5z M4602.5,1332.9
			c58.2,0,103.3-20.8,135.5-62.3c32.2-41.5,48.3-101.2,48.3-179.1l0,0c0-77.9-16.1-137.6-48.3-179.1
			c-32.2-41.5-77.4-62.3-135.5-62.3l0,0c-51.9,0-94,18.2-126.2,54.5c-32.2,36.3-50.4,87.2-54.5,152.6l0,0v68.5
			c4.2,66.5,22.3,117.6,54.5,153.4C4508.5,1315,4550.6,1332.9,4602.5,1332.9L4602.5,1332.9z M5859.5,1480.9l-85.7-250.8h-395.6
			l-84.1,250.8h-219.6l375.4-1028h257l375.4,1028H5859.5z M5431.2,1071.3h289.7l-96.6-289.7l-46.7-155.8h-3.1l-43.6,152.6
			L5431.2,1071.3z M6320.6,590c-88.3,0-132.4-37.9-132.4-113.7l0,0c0-76.8,44.1-115.3,132.4-115.3l0,0
			c88.3,0,132.4,38.4,132.4,115.3l0,0C6453,552.1,6408.8,590,6320.6,590L6320.6,590z M6426.5,702.1v778.8h-213.4V702.1H6426.5z
			 M7400,1480.9h-244.5l-176-283.5l-179.1,283.5H6562l286.6-394.1L6576,702.1h246.1l166.7,272.6l166.7-272.6h239.9l-275.7,384.7
			L7400,1480.9z"/>
	</g>
</g>
<g transform="rotate(0 82.5 0)">
	<g transform="matrix(1 0 0 -1 0 24)">
		<g>
			<path class="st1" d="M3812.9,1289.9H4042c16.2,57.9,39.3,113.8,69.1,166.5l-162,162.1c-7.1,7.1-11,16.7-11,26.7
				c0,10,4,19.6,11,26.7l234.9,234.9c14.1,14,39.3,14,53.3,0l162-162.1c52.7,29.7,108.4,52.8,166.5,69.1v229
				c0,20.9,16.9,37.7,37.7,37.7h332.2c20.9,0,37.7-17,37.7-37.7v-152.4c0-20.9-16.9-37.7-37.7-37.7s-37.7,17-37.7,37.7v114.7h-256.7
				v-220.6c0-17.6-12-32.7-29.1-36.7c-70.3-16.7-137.3-44.4-199.1-82.6c-14.8-9.2-34.1-6.9-46.5,5.5l-156,156l-181.5-181.4
				l156-156.1c12.4-12.4,14.6-31.6,5.5-46.5c-38.1-61.9-66-128.9-82.6-199.1c-4-17-19.3-29.1-36.7-29.1h-220.6V957.7h220.5
				c17.6,0,32.7-12,36.7-29.1c16.7-70.3,44.4-137.3,82.6-199.1c9.2-14.9,7-34.2-5.4-46.5l-156-156l181.5-181.5l156,156
				c12.3,12.4,31.5,14.5,46.5,5.5c61.7-38.1,128.7-65.9,199.1-82.6c17-4.1,29.1-19.3,29.1-36.7V167.1h256.7v86.2
				c0,20.9,16.9,37.7,37.7,37.7s37.7-16.9,37.7-37.7V129.4c0-20.9-16.9-37.7-37.7-37.7h-332.2c-20.9,0-37.7,16.9-37.7,37.7v229.1
				c-58,16.2-113.9,39.3-166.6,69l-162-161.9c-14.7-14.7-38.6-14.7-53.3,0L3949,500.3c-7.1,7.1-11,16.7-11,26.7c0,10,4,19.6,11,26.7
				l162,162c-29.7,52.7-52.8,108.5-69.1,166.6h-229c-20.9,0-37.7,16.9-37.7,37.7v332.2C3775.2,1272.9,3792.1,1289.9,3812.9,1289.9z"
				/>
			<path class="st1" d="M5036.5,642.2h80.1h93.1h142.8c9.8,0,19.2-3.8,26.2-10.6l177.7-171.6c23.9,12.2,50.5,19.6,79.1,19.6
				c97,0,175.9-78.9,175.9-175.9s-78.9-175.9-175.9-175.9c-97,0-175.9,78.9-175.9,175.9c0,40.9,14.6,78.1,38.1,108l-160.4,154.9
				h-127.5h-93.1h-80.1c-20.9,0-37.7,16.9-37.7,37.7S5015.6,642.2,5036.5,642.2z M5635.4,203.4c55.3,0,100.4,45.1,100.4,100.4
				s-45.1,100.4-100.4,100.4c-55.4,0-100.4-45.1-100.4-100.4S5580,203.4,5635.4,203.4z"/>
			<path class="st1" d="M5848.9,976.9c97,0,175.9-78.9,175.9-175.9s-78.9-175.9-175.9-175.9c-84,0-154.3,59.3-171.6,138.1h-901.1
				c-163,0-295.5,144.2-295.5,321.5s132.5,321.5,295.5,321.5h901.1c17.4,78.9,87.6,138.1,171.6,138.1c97,0,175.9-78.9,175.9-175.9
				c0-97-78.9-175.9-175.9-175.9c-84,0-154.3,59.3-171.6,138.1h-901.1c-121.3,0-220-110.4-220-246s98.8-246,220.1-246h901.1
				C5694.7,917.7,5764.9,976.9,5848.9,976.9z M5848.9,700.6c55.3,0,100.4,45.1,100.4,100.4c0,55.3-45.1,100.4-100.4,100.4
				c-55.4,0-100.4-45.1-100.4-100.4C5748.5,745.7,5793.5,700.6,5848.9,700.6z M5848.9,1268.2c55.3,0,100.4,45.1,100.4,100.4
				c0,55.4-45.1,100.4-100.4,100.4c-55.4,0-100.4-45.1-100.4-100.4C5748.5,1313.3,5793.5,1268.2,5848.9,1268.2z"/>
			<path class="st1" d="M5177.2,1043.3l-449.3,3.3c-20.9,0.1-37.6,17.2-37.5,38c0.1,20.8,17,37.5,37.7,37.5c0.1,0,0.2,0,0.3,0
				l446.9-3.2c16,80.5,87.2,141.4,172.4,141.4c97,0,175.9-78.9,175.9-175.9c0-97-78.9-175.9-175.9-175.9
				C5265,908.3,5195.8,966.1,5177.2,1043.3z M5448.3,1084.2c0,55.3-45.1,100.4-100.4,100.4s-100.4-45.1-100.4-100.4
				c0-55.4,45.1-100.4,100.4-100.4C5403.2,983.8,5448.3,1028.9,5448.3,1084.2z"/>
			<path class="st1" d="M5635.4,1685.2c-28.1,0-54.4,7.3-77.9,19l-166-176.6c-7.2-7.6-17.1-11.9-27.6-11.9h-112.1h-123.7h-89.8
				c-20.9,0-37.7,16.9-37.7,37.7c0,20.9,16.9,37.7,37.7,37.7h89.8h123.7h95.9l150.9,160.6c-24.1,30.1-39.2,67.8-39.2,109.3
				c0,97,78.9,176,175.9,176c97,0,175.9-79,175.9-176C5811.3,1764.1,5732.4,1685.2,5635.4,1685.2z M5635.4,1961.5
				c-55.4,0-100.4-45.1-100.4-100.4c0-55.3,45.1-100.4,100.4-100.4c55.3,0,100.4,45.1,100.4,100.4S5690.8,1961.5,5635.4,1961.5z"/>
			<path class="st1" d="M4312.7,1078.9c0,282.4,229.8,512.2,512.2,512.2c20.9,0,37.7-16.9,37.7-37.7s-16.9-37.7-37.7-37.7
				c-240.8,0-436.7-195.9-436.7-436.7s195.9-436.7,436.7-436.7c20.9,0,37.7-16.9,37.7-37.7c0-20.9-16.9-37.7-37.7-37.7
				C4542.5,566.8,4312.7,796.5,4312.7,1078.9z"/>
		</g>
	</g>
</g>
</svg>
